<?xml version="1.0" encoding="utf-8"?>
<!-- Generator: Adobe Illustrator 16.0.4, SVG Export Plug-In . SVG Version: 6.00 Build 0)  -->
<!DOCTYPE svg PUBLIC "-//W3C//DTD SVG 1.1//EN" "http://www.w3.org/Graphics/SVG/1.1/DTD/svg11.dtd">
<svg version="1.1" id="Layer_1" xmlns="http://www.w3.org/2000/svg" xmlns:xlink="http://www.w3.org/1999/xlink" x="0px" y="0px"
	 width="337.332px" height="103.167px" viewBox="0 0 337.332 103.167" enable-background="new 0 0 337.332 103.167"
	 xml:space="preserve">
<line fill="none" stroke="#000000" stroke-width="3" stroke-miterlimit="10" x1="52" y1="11.833" x2="121" y2="11.833"/>
<line fill="none" stroke="#000000" stroke-width="3" stroke-miterlimit="10" x1="225" y1="11.833" x2="294" y2="11.833"/>
<text transform="matrix(1 0 0 1 136.3938 16.2983)" font-family="'TwCenMT-Bold'" font-size="14">OUR VISION</text>
<text transform="matrix(1 0 0 1 13.6306 37.3677)" font-family="'TwCenMT-Regular'" font-size="14">“caring for people by creating authentic positive change </text>
<text transform="matrix(1 0 0 1 29.4797 54.1685)" font-family="'TwCenMT-Regular'" font-size="14">to improve humanity and connection using evidence”</text>
<text transform="matrix(1 0 0 1 237.7834 96.0005)" font-family="'TwCenMT-Bold'" font-size="14">CHANGIN EERS</text>
<g>
	<path d="M307.117,66.96c-0.096-0.032-0.204-0.133-0.29-0.275c-1.056-1.748-2.734-2.647-4.364-3.416
		c-1.552-0.733-2.801-1.355-3.927-1.957c-0.173-0.094-0.386-0.142-0.626-0.142c-0.598,0-1.261,0.277-1.638,0.749
		c-0.076,0.095-0.201,0.245-0.179,0.377c0.007,0.034,0.156,0.005,0.18-0.002c0.069-0.021,0.144-0.045,0.195-0.098
		c0.429-0.434,0.867-0.643,1.343-0.643c0.415,0,0.879,0.156,1.459,0.496c1.033,0.601,2.135,1.12,3.2,1.623
		c0.521,0.243,1.059,0.498,1.581,0.758c0.845,0.419,1.457,1.107,2.154,1.904c-0.263-0.021-0.506-0.031-0.739-0.031
		c-1.22,0-2.154,0.306-2.935,0.966c-1.072-1.069-2.37-1.755-3.858-2.034l-0.025-0.005c-0.371-0.07-0.757-0.142-1.141-0.142
		c-0.162,0-0.324,0.014-0.483,0.044c-0.139,0.028-0.277,0.07-0.407,0.132c-0.123,0.06-0.237,0.135-0.371,0.173
		c-0.323,0.095-0.649,0.191-0.966,0.312c-0.539,0.208-1.057,0.488-1.492,0.87c-0.74,0.652-1.145,1.555-1.27,2.521
		c-0.132,1.039,0.008,2.099,0.197,3.121c-0.212-0.037-0.392-0.056-0.554-0.056c-0.609,0-0.988,0.256-1.348,0.91
		c-0.033,0.061-0.062,0.123-0.091,0.184c-0.041,0.093-0.084,0.188-0.143,0.269c-0.1,0.144-0.179,0.312-0.256,0.476
		c-0.1,0.212-0.228,0.403-0.309,0.623c-0.022,0.063-0.064,0.117-0.09,0.178c-0.041,0.101-0.065,0.23-0.144,0.311
		c-0.116,0.118-0.222,0.013-0.314-0.072c-0.053-0.049-0.115-0.08-0.169-0.127c-0.164-0.141-0.324-0.019-0.446,0.104
		c-0.047,0.048-0.096,0.097-0.142,0.131c-0.016,0.011-0.032,0.022-0.048,0.035c-0.073,0.053-0.155,0.115-0.23,0.115
		c-0.044-0.004-0.087-0.006-0.13-0.006c-0.475,0-0.765,0.223-0.884,0.681c-0.528-0.231-1.057-0.478-1.528-0.813
		c-0.233-0.166-0.45-0.354-0.645-0.563c-0.173-0.188-0.243-0.424,0.086-0.457c0.484-0.047,0.99,0.148,1.434,0.312
		c0.184,0.067,0.368,0.136,0.556,0.189c0.105,0.03,0.208,0.074,0.318,0.081c0.051,0.006,0.106,0.006,0.137-0.041
		c0.04-0.057-0.015-0.125-0.039-0.179c-0.094-0.191-0.187-0.382-0.276-0.573c-0.077-0.161-0.128-0.309,0.072-0.4
		c0.173-0.077,0.357-0.042,0.522,0.032c0.092,0.04,0.188,0.085,0.274,0.134c0.05,0.028,0.1,0.058,0.147,0.084
		c0.246,0.131,0.469,0.307,0.705,0.494c0.095,0.071,0.175,0.162,0.28,0.218c0.053,0.029,0.098,0.05,0.124-0.009
		c0.044-0.094,0.071-0.212,0.107-0.312c0.107-0.273,0.216-0.557,0.287-0.854c0.179-0.74,0.351-1.495,0.517-2.227
		c0.27-1.181,0.547-2.403,0.859-3.595c0.438-1.668,1.273-2.827,2.554-3.548c0.51-0.285,0.903-0.537,1.238-0.796
		c0.19-0.144,0.351-0.331,0.509-0.511c0.091-0.106,0.185-0.207,0.286-0.304c0.115-0.11-0.066-0.017-0.114,0.015
		c-0.2,0.133-0.408,0.264-0.61,0.39c-0.454,0.287-0.925,0.583-1.344,0.929c-0.148,0.122-0.31,0.249-0.463,0.368
		c-0.627,0.491-1.275,0.998-1.611,1.654c-0.795,1.556-1.352,3.333-1.655,5.276c-0.027,0.175-0.04,0.355-0.052,0.547
		c-0.014,0.239-0.027,0.482-0.077,0.72c-0.053,0.248-0.149,0.494-0.327,0.682c-0.065,0.069-0.134,0.155-0.225,0.189
		c-0.188,0.07-0.481-0.097-0.603,0.125c-0.036,0.067-0.086,0.238-0.189,0.22c-0.074-0.016-0.14-0.063-0.21-0.088
		c-0.297-0.101-0.576-0.195-0.854-0.185c-0.216,0.005-0.373,0.076-0.467,0.205c-0.125,0.172-0.138,0.451-0.035,0.83
		c-0.154-0.045-0.301-0.089-0.441-0.136c-0.351-0.11-0.68-0.215-1.01-0.246c-0.222-0.02-0.533,0.097-0.7,0.243
		c-0.266,0.233-0.021,0.721,0.21,0.89c0.402,0.295,0.837,0.561,1.257,0.814c0.24,0.144,0.488,0.295,0.727,0.45
		c0.133,0.085,0.25,0.193,0.386,0.322c0.048,0.043,0.1,0.08,0.139,0.133c0.073,0.095-0.084,0.111-0.149,0.144
		c-0.116,0.062-0.199,0.104-0.281,0.145c-0.346,0.164-0.541,0.354-0.6,0.58c-0.059,0.225,0.019,0.477,0.232,0.775
		c0.13,0.179,0.29,0.336,0.434,0.476c0.479,0.465,1.021,0.863,1.604,1.188c0.335,0.183,0.684,0.345,1.04,0.485
		c0.348,0.136,0.706,0.236,1.062,0.354c0.198,0.062,0.389,0.147,0.57,0.248c0.18,0.103,0.346,0.226,0.522,0.332
		c0.173,0.105,0.324,0.242,0.5,0.344c0.353,0.207,0.72,0.402,1.075,0.592c0.253,0.135,0.514,0.273,0.768,0.415
		c0.746,0.42,1.418,0.798,2.089,1.213c0.14,0.087,0.271,0.287,0.284,0.439c0.054,0.569,0.095,1.146,0.135,1.705
		c0.043,0.568,0.085,1.154,0.14,1.729c0.02,0.214,0.096,0.424,0.168,0.626c0.033,0.09,0.059,0.359,0.2,0.263
		c0.079-0.059,0.169-0.14,0.158-0.247c-0.041-0.39-0.085-0.778-0.129-1.17c-0.081-0.715-0.166-1.454-0.225-2.185
		c-0.1-1.232-0.1-1.232,1.09-1.655l0.014-0.006c0.196-0.069,0.393-0.104,0.583-0.104c0.737,0,1.279,0.521,1.35,1.295
		c0.051,0.549,0.096,1.104,0.139,1.643c0.039,0.485,0.08,0.985,0.122,1.476c0.013,0.133,0.046,0.268,0.078,0.396
		c0.013,0.049,0.009,0.117,0.037,0.164c0.053,0.086,0.109-0.022,0.145-0.075c0.08-0.118,0.109-0.25,0.101-0.391
		c-0.021-0.399-0.047-0.801-0.071-1.199c-0.048-0.776-0.099-1.577-0.131-2.368c-0.009-0.24,0.055-0.549,0.192-0.65
		c0.425-0.313,0.882-0.601,1.325-0.876c0.21-0.133,0.43-0.27,0.644-0.409c0.175-0.114,0.351-0.224,0.525-0.334
		c0.483-0.304,0.985-0.617,1.431-0.981c0.331-0.27,0.615-0.609,0.89-0.938c0.123-0.146,0.249-0.297,0.381-0.442l0.212-0.236
		l-0.255,0.189c-0.315,0.232-0.627,0.466-0.938,0.695c-0.755,0.562-1.468,1.094-2.207,1.619c-0.675,0.478-1.239,0.828-1.776,1.105
		c-0.34,0.173-0.756,0.246-1.019,0.17c-0.447-0.129-0.816-0.188-1.162-0.188c-0.445,0-0.841,0.103-1.211,0.312
		c-0.251,0.142-0.494,0.212-0.746,0.212c-0.408,0-0.799-0.193-1.127-0.382c-0.715-0.414-1.457-0.807-2.176-1.188
		c-0.337-0.179-0.675-0.359-1.011-0.539c-0.148-0.081-0.297-0.168-0.47-0.268c-0.06-0.033-0.256-0.11-0.086-0.144
		c0.16-0.031,0.32-0.071,0.477-0.119c0.214-0.067,0.423-0.148,0.626-0.242c0.637-0.293,1.227-0.705,1.706-1.218
		c0.407-0.434,0.763-0.967,0.86-1.564c0.011-0.069-0.015-0.081-0.059-0.024c-0.081,0.111-0.157,0.218-0.23,0.32
		c-0.15,0.21-0.294,0.409-0.444,0.598c-0.712,0.895-1.613,1.809-2.891,1.809c-0.19,0-0.388-0.021-0.587-0.062
		c-0.991-0.202-1.946-0.647-2.832-1.1c-0.479-0.242-0.89-0.645-1.289-1.029c-0.074-0.07-0.146-0.142-0.22-0.211
		c-0.106-0.103-0.174-0.237-0.229-0.369c-0.123-0.298,0.193-0.452,0.42-0.551c0.084-0.038,0.171-0.072,0.258-0.104
		c0.055-0.02,0.122-0.029,0.2-0.029c0.063,0,0.125,0.005,0.179,0.011c0.216,0.021,0.14-0.129,0.062-0.251
		c-0.174-0.272-0.345-0.633-0.192-0.95c0.123-0.255,0.44-0.343,0.702-0.264c0.083,0.027,0.171,0.04,0.258,0.05
		c0.063,0.008,0.168,0.035,0.224-0.005c0.059-0.042-0.021-0.176-0.038-0.233c-0.012-0.037-0.039-0.077-0.044-0.115
		c-0.031-0.238,0.246-0.011,0.313,0.033c0.075,0.046,0.151,0.088,0.225,0.136c0.037,0.022,0.124,0.107,0.171,0.102
		c0.033-0.007,0.051-0.061,0.065-0.086c0.1-0.192,0.2-0.387,0.301-0.579c0.268-0.512,0.534-1.025,0.799-1.54
		c0.25-0.486,0.509-0.986,1.108-0.986c0.017,0,0.033,0.001,0.049,0.001c0.536,0.022,0.905,0.34,1.198,1.028
		c0.925,2.179,3.279,3.702,5.728,3.702c0.445,0,0.884-0.052,1.307-0.154c0.35-0.084,0.684-0.263,1.003-0.438
		c0.089-0.049,0.177-0.097,0.268-0.144c0.044-0.023,0.091-0.045,0.136-0.069c0.025-0.011,0.051-0.021,0.057-0.052
		c0.007-0.03-0.02-0.062-0.033-0.087c-0.017-0.031-0.032-0.094-0.064-0.114c-0.026-0.014-0.061,0.002-0.085,0.01
		c-0.044,0.015-0.089,0.03-0.134,0.044c-0.136,0.042-0.276,0.086-0.405,0.148c-0.637,0.32-1.34,0.483-2.09,0.483
		c-1.656,0-3.384-0.808-4.398-2.056c-1.513-1.858-2.062-3.896-1.634-6.053c0.321-1.62,1.572-2.753,3.039-2.753
		c0.741,0,1.458,0.293,2.077,0.849c0.627,0.562,1.315,1.078,1.981,1.576c0.506,0.381,1.03,0.772,1.523,1.185
		c0.473,0.395,0.959,0.853,0.989,1.274c0.087,1.234,0.073,2.498,0.059,3.721c-0.006,0.438-0.01,0.893-0.01,1.339
		c-0.02-0.013-0.039-0.027-0.051-0.045c-0.059-0.104-0.113-0.217-0.161-0.341c-0.642-1.665-1.575-3.244-2.778-4.695
		c-0.506-0.61-1.161-1.004-1.952-1.169c-0.153-0.034-0.304-0.05-0.45-0.05c-0.465,0-0.87,0.166-1.12,0.455
		c-0.209,0.247-0.293,0.561-0.239,0.906c0.187,1.195,1.073,2.467,2.349,2.466c0.375,0,0.768-0.108,1.164-0.323
		c0.1-0.055,0.208-0.1,0.312-0.145c0.148-0.06,0.301-0.123,0.435-0.214c0.125-0.085,0.229-0.127,0.313-0.127
		c0.131,0,0.234,0.096,0.334,0.31l0.06,0.134c0.333,0.715,0.676,1.454,1.047,2.163c0.169,0.326,0.376,0.638,0.576,0.938
		c0.075,0.113,0.14,0.235,0.221,0.343c0.073,0.094,0.157,0.337,0.29,0.195c0.107-0.114,0.104-0.361,0.152-0.506
		c0.074-0.224,0.152-0.458,0.185-0.692c0.077-0.565,0.146-1.142,0.212-1.698c0.092-0.768,0.188-1.562,0.307-2.335
		c0.071-0.475,0.243-0.884,0.471-1.122c0.175-0.183,0.524-0.32,0.814-0.32c0.062,0,0.119,0.005,0.17,0.02
		c0.224,0.06,0.48,0.462,0.558,0.784c0.224,0.923-0.336,1.836-1.304,2.126c-0.154,0.045-0.308,0.091-0.464,0.136
		c-0.123,0.036-0.336,0.102-0.105,0.162c0.137,0.037,0.287,0.03,0.427,0.03c0.557,0,1.009-0.246,1.34-0.729
		c0.544-0.793,0.61-1.636,0.196-2.502c-0.165-0.348-0.443-0.537-0.787-0.537c-0.101,0-0.201,0.016-0.303,0.048
		c-0.477,0.153-1.12,0.443-1.223,1.213l-0.094,0.723c-0.082,0.633-0.167,1.285-0.257,1.927c-0.049,0.368-0.107,0.744-0.164,1.107
		c-0.014,0.087-0.026,0.176-0.041,0.263c-0.127-1.308-0.124-2.62-0.121-3.783v-0.041c0-0.088-0.003-0.189,0.037-0.255
		c0.733-1.229,1.562-2.495,2.922-3.267c0.211-0.12,0.462-0.183,0.726-0.183c0.886,0,1.416,0.621,1.461,1.208l0.015,0.176
		c0.05,0.612,0.103,1.244-0.009,1.834c-0.329,1.751-0.704,3.624-1.216,5.454c-0.168,0.604-0.85,1.214-1.828,1.214
		c-0.28,0-0.553-0.057-0.791-0.163c-0.177-0.078-0.349-0.169-0.55-0.274c-0.085-0.043-0.28-0.193-0.37-0.164
		c0,0.159,0.212,0.3,0.318,0.396c0.134,0.119,0.28,0.224,0.439,0.306c0.307,0.161,0.654,0.246,1.001,0.246
		c0.918-0.001,1.732-0.556,2.076-1.416c0.797-2.004,1.234-4.312,1.338-7.06C308.532,68.009,308.043,67.257,307.117,66.96z
		 M289.111,73.575c0.001-0.006,0.003-0.014,0.005-0.017c0.056-0.104,0.161-0.128,0.271-0.127c0.055,0,0.108,0.009,0.164,0.006
		c0.045-0.003,0.105-0.03,0.148-0.023c0.051,0.006,0.052,0.074,0.047,0.112c0,0-0.192,0.508-0.24,0.565s-0.122,0-0.122,0
		c-0.077-0.114-0.156-0.227-0.231-0.341C289.132,73.717,289.103,73.625,289.111,73.575z M302.526,69.75
		c-0.002,0.158-0.002,0.318-0.004,0.479c-0.137-0.126-0.275-0.257-0.409-0.385c-0.334-0.317-0.679-0.644-1.038-0.943
		c-0.153-0.127-0.305-0.255-0.459-0.383c-0.796-0.667-1.618-1.354-2.48-1.956c-0.444-0.307-0.957-0.528-1.451-0.742
		c-0.106-0.046-0.215-0.093-0.32-0.138c-0.037-0.018-0.111-0.034-0.139-0.062c-0.076-0.076,0.157-0.087,0.202-0.096
		c0.123-0.021,0.248-0.039,0.375-0.055c0.247-0.03,0.499-0.044,0.75-0.044c1.526,0,2.96,0.553,4.378,1.692
		c0.443,0.357,0.647,0.8,0.622,1.356C302.532,68.9,302.53,69.333,302.526,69.75z M299.749,72.696
		c-0.502,0.162-0.934,0.301-1.383,0.371c-0.079,0.013-0.158,0.019-0.236,0.019h-0.002c-0.438,0-0.854-0.197-1.207-0.569
		c-0.533-0.563-0.785-1.382-0.757-1.894c0.027-0.48,0.415-0.582,0.775-0.635c0.112-0.018,0.225-0.028,0.335-0.028
		c0.616,0,1.213,0.27,1.775,0.8c0.325,0.307,0.607,0.665,0.934,1.082c0.155,0.196,0.315,0.401,0.499,0.624
		C300.222,72.542,299.983,72.62,299.749,72.696z M305.654,67.23c-0.439,0.342-0.895,0.694-1.292,1.098
		c-0.399,0.407-0.712,0.91-1.016,1.394c-0.041,0.067-0.083,0.135-0.126,0.202c-0.142,0.226-0.259,0.387-0.466,0.387
		c-0.049,0-0.104-0.009-0.163-0.026c0.022-0.095,0.048-0.191,0.072-0.287c0.062-0.246,0.129-0.502,0.166-0.758
		c0.021-0.149,0.004-0.307-0.014-0.457c-0.008-0.082-0.018-0.165-0.021-0.247c-0.043-1.262,0.107-1.462,1.347-1.771
		c0.47-0.118,0.785-0.166,1.057-0.166c0.181,0,0.363,0.025,0.539,0.071c0.092,0.023,0.275,0.053,0.297,0.168
		C306.06,66.993,305.753,67.154,305.654,67.23z"/>
	<path d="M305.841,77.672c0,0,0.991,1.906,1.683,1.737c0,0,0.811-0.182,0.183-4.2c0,0,0.126-0.234,0.238,0
		c0,0,0.288,0.858,0.271,3.545c0,0-0.016,1.166-0.957,1.103c0,0-0.977-0.511-1.503-1.807
		C305.756,78.05,305.526,77.661,305.841,77.672z"/>
</g>
</svg>
